<?xml version="1.0" standalone="no"?>
<!DOCTYPE svg PUBLIC "-//W3C//DTD SVG 20010904//EN"
 "http://www.w3.org/TR/2001/REC-SVG-20010904/DTD/svg10.dtd">
<svg version="1.0" xmlns="http://www.w3.org/2000/svg"
 width="504.000000pt" height="504.000000pt" viewBox="0 0 504.000000 504.000000"
 preserveAspectRatio="xMidYMid meet">
<metadata>
Created by potrace 1.11, written by Peter Selinger 2001-2013
</metadata>
<g transform="translate(0.000000,504.000000) scale(0.100000,-0.100000)"
fill="#000000" stroke="none">
<path d="M2772 4007 c-12 -7 -30 -23 -39 -36 -32 -47 -18 -177 27 -240 11 -17
24 -45 26 -63 5 -31 1 -36 -63 -85 -67 -50 -89 -69 -165 -140 -41 -37 -61 -90
-92 -238 -10 -44 -22 -93 -28 -110 -19 -55 -22 -98 -6 -109 38 -28 42 -80 22
-283 -6 -62 -6 -63 -32 -57 -15 4 -37 11 -49 15 -53 20 -204 28 -280 15 -50
-8 -156 -42 -198 -63 -16 -8 -51 -33 -76 -54 -46 -38 -47 -38 -64 -19 -54 60
-200 123 -317 136 -198 23 -357 -17 -454 -116 -16 -16 -32 -30 -36 -30 -4 0
-23 28 -42 63 l-35 62 -121 0 -120 1 0 -753 0 -753 175 0 175 0 0 38 c0 20 1
265 1 544 l0 507 43 44 c91 92 201 124 311 92 74 -21 137 -80 155 -143 8 -30
11 -200 11 -563 l0 -519 174 0 c133 0 175 3 176 13 0 6 1 251 2 542 2 428 5
535 16 554 20 36 60 70 116 99 42 22 63 27 130 27 120 0 195 -45 233 -140 23
-56 27 -160 26 -627 l0 -468 176 0 176 0 -1 255 c0 140 2 255 6 255 3 0 10
-15 16 -33 6 -17 25 -71 42 -119 l31 -87 -31 -98 c-44 -141 -46 -159 -17 -166
62 -17 171 4 184 36 2 7 6 39 7 72 3 53 0 64 -25 92 -39 46 -47 89 -49 254 0
86 -7 176 -16 219 l-15 74 25 21 c33 27 44 53 42 100 -1 42 9 75 24 75 5 0 17
-34 26 -75 11 -52 22 -78 35 -85 17 -9 19 -20 16 -80 -2 -56 -7 -75 -25 -94
-21 -22 -22 -31 -17 -93 5 -59 11 -97 20 -138 1 -5 8 -37 15 -70 17 -77 36
-109 77 -128 32 -16 34 -15 52 8 l19 24 52 -54 c122 -125 262 -184 453 -189
145 -5 301 34 368 91 l30 25 0 -46 0 -46 175 0 175 0 0 1075 c0 591 -2 1075
-4 1075 -3 0 -53 -12 -112 -26 -59 -14 -114 -27 -123 -29 -9 -2 -37 -9 -63
-15 l-48 -12 0 -299 c0 -202 -3 -299 -10 -299 -6 0 -23 6 -38 14 -72 37 -266
58 -378 42 -64 -9 -155 -37 -200 -61 -43 -23 -46 -23 -41 -5 3 10 -2 28 -10
40 -12 17 -13 37 -7 98 10 104 11 178 3 232 -6 43 -5 47 33 83 l39 38 -32 97
c-55 167 -107 278 -155 326 -20 21 -71 48 -150 80 -158 64 -158 64 -148 146
17 138 2 211 -50 246 -33 21 -125 28 -154 11z m-147 -1184 c-2 -49 -5 -98 -8
-109 -3 -12 -8 -39 -11 -60 -3 -22 -9 -52 -12 -68 -5 -23 -1 -33 16 -46 13 -9
21 -22 19 -28 -2 -6 -25 9 -51 34 l-48 45 31 92 c17 51 33 114 35 141 9 118
32 116 29 -1z m1319 -458 c27 -9 67 -28 88 -42 l38 -26 0 -393 c0 -446 7 -408
-90 -452 -107 -48 -277 -37 -392 25 -122 67 -188 204 -191 398 -2 184 40 311
134 403 95 93 282 133 413 87z"/>
</g>
</svg>
